<svg version="1.1" id="Layer_1" xmlns="http://www.w3.org/2000/svg" xmlns:xlink="http://www.w3.org/1999/xlink" x="0px" y="0px"
	 width="100%" viewBox="0 0 500 500" enable-background="new 0 0 500 500" xml:space="preserve">
<path fill="#FFFFFF" opacity="1.000000" stroke="none" 
	d="
M330.000000,501.000000 
	C220.000031,501.000000 110.500053,501.000000 1.000059,501.000000 
	C1.000039,334.333405 1.000039,167.666794 1.000020,1.000148 
	C167.666565,1.000099 334.333130,1.000099 500.999756,1.000049 
	C500.999847,167.666519 500.999847,334.333038 500.999939,500.999786 
	C444.166656,501.000000 387.333344,501.000000 330.000000,501.000000 
M130.499847,401.002930 
	C153.606140,401.242035 176.375320,399.554840 198.167816,388.387054 
	C201.467606,399.645081 210.074188,399.229156 218.785309,398.628876 
	C220.278214,398.526001 221.784286,398.614319 223.284286,398.614319 
	C229.347397,398.614319 235.410492,398.614319 242.346878,398.614319 
	C234.798737,388.327759 227.920486,378.954132 221.170654,369.755493 
	C236.926315,346.643951 240.773788,321.732849 231.987808,295.763306 
	C222.555099,267.882111 198.092789,259.209900 172.066849,252.942047 
	C195.232346,247.593094 214.473389,237.449524 222.691391,214.122604 
	C230.509644,191.930344 228.178741,170.219116 215.720093,149.595856 
	C222.972061,141.695709 230.212860,133.807709 238.164780,125.145050 
	C226.540588,125.145050 216.091995,125.279594 205.650391,125.068932 
	C202.196335,124.999237 199.458160,125.612122 197.562042,128.658203 
	C195.396866,132.136581 192.686371,132.740463 189.261963,130.319916 
	C188.344086,129.671112 187.105713,129.468109 186.005722,129.085663 
	C164.938904,121.761024 143.052734,120.289917 121.011627,120.178543 
	C96.345634,120.053909 71.678543,120.146828 47.011925,120.145096 
	C45.419582,120.144981 43.827240,120.145081 42.274796,120.145081 
	C42.274796,214.143280 42.274796,307.395416 42.274796,401.002930 
	C71.559731,401.002930 100.529831,401.002930 130.499847,401.002930 
M292.823456,381.678406 
	C294.798248,394.875702 303.520447,401.633453 314.222107,397.914062 
	C317.035217,396.936340 319.418213,394.721161 321.995209,393.076508 
	C325.209381,398.753906 326.120972,399.096863 333.775055,397.235382 
	C333.775055,377.848724 333.777191,358.405945 333.765564,338.963196 
	C333.765198,338.326935 333.624695,337.690735 333.528656,336.878113 
	C329.542786,336.878113 325.695801,336.878113 321.658813,336.878113 
	C321.658813,344.093506 321.658813,350.919769 321.658813,358.002197 
	C309.458649,347.996155 295.924377,353.824310 293.307098,367.440643 
	C292.473389,371.778046 292.877136,376.353333 292.823456,381.678406 
M260.319427,370.925293 
	C257.087524,371.633789 253.709229,371.961090 250.655487,373.133636 
	C245.062592,375.281158 242.593491,380.059265 243.182861,386.390900 
	C243.789001,392.902832 246.889786,396.824036 252.757629,398.238342 
	C260.193909,400.030731 266.523834,398.031799 271.635406,392.094727 
	C272.585175,394.206909 273.400055,396.019165 274.214050,397.829407 
	C276.922882,397.829407 279.540131,397.829407 282.231415,397.829407 
	C282.231415,386.861389 282.627777,376.055023 281.985718,365.310730 
	C281.797302,362.157837 279.321655,358.365326 276.747833,356.283081 
	C270.153107,350.947906 254.521942,352.001312 247.594742,357.620056 
	C248.825562,360.071899 250.068039,362.546906 251.295227,364.991486 
	C262.038269,360.377747 272.142212,360.040649 269.945770,370.488007 
	C267.124542,370.615112 264.168030,370.748291 260.319427,370.925293 
M415.628906,366.265015 
	C409.731018,388.685028 421.978760,402.161377 444.607452,398.150604 
	C452.753082,396.706818 453.746796,395.093872 451.509216,386.948090 
	C434.690277,392.282471 426.525757,389.692139 427.065125,378.720032 
	C436.268524,378.720032 445.501617,378.720032 454.685822,378.720032 
	C455.566467,363.741028 451.306030,356.199219 440.811584,353.645905 
	C429.602112,350.918579 420.471222,355.270172 415.628906,366.265015 
M492.909485,393.321320 
	C498.202362,384.601898 496.122955,377.290314 486.992706,372.796661 
	C483.719940,371.185852 480.254639,369.941437 477.082214,368.163940 
	C475.829590,367.462097 475.135620,365.763062 474.187286,364.518097 
	C475.649719,363.674988 477.189545,362.011139 478.560333,362.140381 
	C482.931366,362.552460 487.239594,363.630951 491.803986,364.496033 
	C492.836609,361.999847 493.944855,359.320831 495.132538,356.449829 
	C487.467133,353.249329 480.087524,351.962067 472.333038,353.845642 
	C467.085602,355.120270 463.190643,357.839203 462.220825,363.536133 
	C461.270416,369.119110 463.616974,373.758759 469.049316,376.758301 
	C471.659363,378.199554 474.540680,379.150482 477.146667,380.597931 
	C479.865082,382.107788 484.632294,382.715607 483.336365,387.014618 
	C482.073425,391.203979 477.531311,390.184662 474.222076,389.724823 
	C470.235046,389.170807 466.349792,387.884033 462.138214,386.844788 
	C462.138214,389.253052 461.926636,391.274475 462.213593,393.222504 
	C462.400696,394.492493 463.077454,396.499298 463.935028,396.737915 
	C473.755920,399.470428 483.549103,400.927734 492.909485,393.321320 
M382.498474,363.125702 
	C383.596680,360.189972 384.694916,357.254242 385.855682,354.151245 
	C381.455566,354.151245 377.369781,354.151245 373.341919,354.151245 
	C369.996552,363.999603 366.742096,373.580231 363.015259,384.551605 
	C359.218842,373.356140 355.946655,363.706573 352.670380,354.044922 
	C348.423889,354.044922 344.467651,354.044922 340.089355,354.044922 
	C344.750244,366.254181 349.302551,378.171814 353.849213,390.091614 
	C356.894592,398.075500 356.896210,397.883362 365.120850,398.106506 
	C368.385406,398.195068 369.746857,397.032135 370.796173,394.119385 
	C374.451263,383.973297 378.363068,373.919708 382.498474,363.125702 
M400.305237,353.867004 
	C397.715057,353.867004 395.124878,353.867004 392.489471,353.867004 
	C392.489471,368.890289 392.489471,383.256775 392.489471,397.817566 
	C396.482025,397.817566 400.227356,397.817566 404.318634,397.817566 
	C404.318634,383.874908 404.372894,370.113464 404.186310,356.355316 
	C404.174896,355.512695 402.258331,354.695923 400.305237,353.867004 
M391.911530,341.694397 
	C392.043488,342.839966 391.756287,344.568634 392.386230,345.021393 
	C394.251068,346.361908 396.460815,347.959564 398.568268,348.006989 
	C400.466187,348.049713 403.258240,346.622711 404.093750,345.026306 
	C404.957184,343.376648 404.652924,340.287292 403.598846,338.629120 
	C401.142853,334.765472 394.376221,336.253998 391.911530,341.694397 
z"/>
<path fill="#529B78" opacity="1.000000" stroke="none" 
	d="
M129.999893,401.002930 
	C100.529831,401.002930 71.559731,401.002930 42.274796,401.002930 
	C42.274796,307.395416 42.274796,214.143280 42.274796,120.145081 
	C43.827240,120.145081 45.419582,120.144981 47.011925,120.145096 
	C71.678543,120.146828 96.345634,120.053909 121.011627,120.178543 
	C143.052734,120.289917 164.938904,121.761024 186.005722,129.085663 
	C187.105713,129.468109 188.344086,129.671112 189.261963,130.319916 
	C192.686371,132.740463 195.396866,132.136581 197.562042,128.658203 
	C199.458160,125.612122 202.196335,124.999237 205.650391,125.068932 
	C216.091995,125.279594 226.540588,125.145050 238.164780,125.145050 
	C230.212860,133.807709 222.972061,141.695709 215.720093,149.595856 
	C228.178741,170.219116 230.509644,191.930344 222.691391,214.122604 
	C214.473389,237.449524 195.232346,247.593094 172.066849,252.942047 
	C198.092789,259.209900 222.555099,267.882111 231.987808,295.763306 
	C240.773788,321.732849 236.926315,346.643951 221.170654,369.755493 
	C227.920486,378.954132 234.798737,388.327759 242.346878,398.614319 
	C235.410492,398.614319 229.347397,398.614319 223.284286,398.614319 
	C221.784286,398.614319 220.278214,398.526001 218.785309,398.628876 
	C210.074188,399.229156 201.467606,399.645081 198.167816,388.387054 
	C176.375320,399.554840 153.606140,401.242035 129.999893,401.002930 
M84.681549,284.180023 
	C77.979729,288.246765 76.439308,294.131622 76.634613,301.836304 
	C77.187447,323.645050 76.828163,345.476898 76.828163,367.299652 
	C76.828163,369.066986 76.828163,370.834320 76.828163,373.577209 
	C102.561653,372.974701 127.670578,372.774323 152.733078,371.590912 
	C161.569550,371.173676 170.368622,368.581085 178.337891,363.559814 
	C177.641617,362.474548 177.163467,361.613312 176.577682,360.832916 
	C153.990051,330.741608 131.372406,300.672791 108.824707,270.551605 
	C106.310600,267.193054 103.861649,267.196716 100.936195,269.812500 
	C95.721550,274.475128 90.475464,279.102600 84.681549,284.180023 
M101.500107,148.613235 
	C93.410469,148.613235 85.320839,148.613235 77.203697,148.613235 
	C77.203697,179.586288 77.203697,209.809097 77.203697,240.386612 
	C81.222946,240.386612 84.904930,240.066589 88.507736,240.464127 
	C93.495842,241.014526 96.791138,239.013000 100.074936,235.381653 
	C121.863129,211.287857 143.862579,187.385162 165.778748,163.406998 
	C167.730423,161.271713 169.578491,159.041748 172.199478,156.020172 
	C165.006500,154.106003 159.001648,151.530228 152.834930,151.055069 
	C136.093323,149.765137 119.283127,149.365417 101.500107,148.613235 
M166.318863,202.806015 
	C154.987381,215.014999 143.655899,227.223999 132.324432,239.432983 
	C132.564392,239.862854 132.804352,240.292725 133.044312,240.722580 
	C140.952957,239.801620 149.014297,239.560608 156.740204,237.825851 
	C176.066269,233.486404 189.346100,226.605392 192.589523,201.618561 
	C193.641663,193.512970 193.699081,185.297653 190.298462,176.893372 
	C182.164886,185.674957 174.476181,193.976242 166.318863,202.806015 
M185.147400,281.310822 
	C174.561798,273.792267 156.432816,268.150238 147.417068,269.724487 
	C164.386520,292.747162 181.268906,315.651733 198.151291,338.556305 
	C198.807983,338.430176 199.464661,338.304077 200.121353,338.177948 
	C200.363495,328.780365 201.359207,319.325775 200.654221,309.999817 
	C199.801407,298.718292 194.977921,288.903931 185.147400,281.310822 
z"/>
<path fill="#080808" opacity="1.000000" stroke="none" 
	d="
M292.769043,381.249084 
	C292.877136,376.353333 292.473389,371.778046 293.307098,367.440643 
	C295.924377,353.824310 309.458649,347.996155 321.658813,358.002197 
	C321.658813,350.919769 321.658813,344.093506 321.658813,336.878113 
	C325.695801,336.878113 329.542786,336.878113 333.528656,336.878113 
	C333.624695,337.690735 333.765198,338.326935 333.765564,338.963196 
	C333.777191,358.405945 333.775055,377.848724 333.775055,397.235382 
	C326.120972,399.096863 325.209381,398.753906 321.995209,393.076508 
	C319.418213,394.721161 317.035217,396.936340 314.222107,397.914062 
	C303.520447,401.633453 294.798248,394.875702 292.769043,381.249084 
M304.830994,379.153992 
	C304.921600,379.981262 304.920898,380.830994 305.117615,381.632202 
	C306.430969,386.982117 309.272614,389.307526 314.132202,389.071259 
	C318.954834,388.836761 321.599365,386.261322 322.002319,380.577454 
	C322.270203,376.798645 322.200073,372.899048 321.557098,369.178650 
	C320.860046,365.145081 318.010803,363.006165 313.735504,362.875549 
	C309.642120,362.750549 306.882538,364.668793 305.921112,368.441071 
	C305.114471,371.605927 305.121796,374.978241 304.830994,379.153992 
z"/>
<path fill="#080808" opacity="1.000000" stroke="none" 
	d="
M260.765442,370.903381 
	C264.168030,370.748291 267.124542,370.615112 269.945770,370.488007 
	C272.142212,360.040649 262.038269,360.377747 251.295227,364.991486 
	C250.068039,362.546906 248.825562,360.071899 247.594742,357.620056 
	C254.521942,352.001312 270.153107,350.947906 276.747833,356.283081 
	C279.321655,358.365326 281.797302,362.157837 281.985718,365.310730 
	C282.627777,376.055023 282.231415,386.861389 282.231415,397.829407 
	C279.540131,397.829407 276.922882,397.829407 274.214050,397.829407 
	C273.400055,396.019165 272.585175,394.206909 271.635406,392.094727 
	C266.523834,398.031799 260.193909,400.030731 252.757629,398.238342 
	C246.889786,396.824036 243.789001,392.902832 243.182861,386.390900 
	C242.593491,380.059265 245.062592,375.281158 250.655487,373.133636 
	C253.709229,371.961090 257.087524,371.633789 260.765442,370.903381 
M259.811523,389.903809 
	C268.288361,389.869293 271.635956,385.941589 269.889191,377.359619 
	C266.547638,377.835052 262.986908,377.836700 259.846802,378.986816 
	C258.096100,379.628021 256.041779,382.127472 255.950684,383.884247 
	C255.852432,385.778992 257.886597,387.784302 259.811523,389.903809 
z"/>
<path fill="#070707" opacity="1.000000" stroke="none" 
	d="
M415.758484,365.894440 
	C420.471222,355.270172 429.602112,350.918579 440.811584,353.645905 
	C451.306030,356.199219 455.566467,363.741028 454.685822,378.720032 
	C445.501617,378.720032 436.268524,378.720032 427.065125,378.720032 
	C426.525757,389.692139 434.690277,392.282471 451.509216,386.948090 
	C453.746796,395.093872 452.753082,396.706818 444.607452,398.150604 
	C421.978760,402.161377 409.731018,388.685028 415.758484,365.894440 
M443.018341,370.648254 
	C443.035095,364.653107 440.380127,361.644501 435.088654,361.662354 
	C429.889893,361.679840 427.146515,364.832123 427.235809,370.918335 
	C432.202026,370.918335 437.173462,370.918335 443.018341,370.648254 
z"/>
<path fill="#080808" opacity="1.000000" stroke="none" 
	d="
M492.666992,393.601776 
	C483.549103,400.927734 473.755920,399.470428 463.935028,396.737915 
	C463.077454,396.499298 462.400696,394.492493 462.213593,393.222504 
	C461.926636,391.274475 462.138214,389.253052 462.138214,386.844788 
	C466.349792,387.884033 470.235046,389.170807 474.222076,389.724823 
	C477.531311,390.184662 482.073425,391.203979 483.336365,387.014618 
	C484.632294,382.715607 479.865082,382.107788 477.146667,380.597931 
	C474.540680,379.150482 471.659363,378.199554 469.049316,376.758301 
	C463.616974,373.758759 461.270416,369.119110 462.220825,363.536133 
	C463.190643,357.839203 467.085602,355.120270 472.333038,353.845642 
	C480.087524,351.962067 487.467133,353.249329 495.132538,356.449829 
	C493.944855,359.320831 492.836609,361.999847 491.803986,364.496033 
	C487.239594,363.630951 482.931366,362.552460 478.560333,362.140381 
	C477.189545,362.011139 475.649719,363.674988 474.187286,364.518097 
	C475.135620,365.763062 475.829590,367.462097 477.082214,368.163940 
	C480.254639,369.941437 483.719940,371.185852 486.992706,372.796661 
	C496.122955,377.290314 498.202362,384.601898 492.666992,393.601776 
z"/>
<path fill="#060606" opacity="1.000000" stroke="none" 
	d="
M382.337891,363.478333 
	C378.363068,373.919708 374.451263,383.973297 370.796173,394.119385 
	C369.746857,397.032135 368.385406,398.195068 365.120850,398.106506 
	C356.896210,397.883362 356.894592,398.075500 353.849213,390.091614 
	C349.302551,378.171814 344.750244,366.254181 340.089355,354.044922 
	C344.467651,354.044922 348.423889,354.044922 352.670380,354.044922 
	C355.946655,363.706573 359.218842,373.356140 363.015259,384.551605 
	C366.742096,373.580231 369.996552,363.999603 373.341919,354.151245 
	C377.369781,354.151245 381.455566,354.151245 385.855682,354.151245 
	C384.694916,357.254242 383.596680,360.189972 382.337891,363.478333 
z"/>
<path fill="#070707" opacity="1.000000" stroke="none" 
	d="
M400.766724,353.867065 
	C402.258331,354.695923 404.174896,355.512695 404.186310,356.355316 
	C404.372894,370.113464 404.318634,383.874908 404.318634,397.817566 
	C400.227356,397.817566 396.482025,397.817566 392.489471,397.817566 
	C392.489471,383.256775 392.489471,368.890289 392.489471,353.867004 
	C395.124878,353.867004 397.715057,353.867004 400.766724,353.867065 
z"/>
<path fill="#080808" opacity="1.000000" stroke="none" 
	d="
M391.949402,341.293030 
	C394.376221,336.253998 401.142853,334.765472 403.598846,338.629120 
	C404.652924,340.287292 404.957184,343.376648 404.093750,345.026306 
	C403.258240,346.622711 400.466187,348.049713 398.568268,348.006989 
	C396.460815,347.959564 394.251068,346.361908 392.386230,345.021393 
	C391.756287,344.568634 392.043488,342.839966 391.949402,341.293030 
z"/>
<path fill="#FEFFFF" opacity="1.000000" stroke="none" 
	d="
M84.962036,283.962402 
	C90.475464,279.102600 95.721550,274.475128 100.936195,269.812500 
	C103.861649,267.196716 106.310600,267.193054 108.824707,270.551605 
	C131.372406,300.672791 153.990051,330.741608 176.577682,360.832916 
	C177.163467,361.613312 177.641617,362.474548 178.337891,363.559814 
	C170.368622,368.581085 161.569550,371.173676 152.733078,371.590912 
	C127.670578,372.774323 102.561653,372.974701 76.828163,373.577209 
	C76.828163,370.834320 76.828163,369.066986 76.828163,367.299652 
	C76.828163,345.476898 77.187447,323.645050 76.634613,301.836304 
	C76.439308,294.131622 77.979729,288.246765 84.962036,283.962402 
z"/>
<path fill="#FEFFFF" opacity="1.000000" stroke="none" 
	d="
M102.000114,148.613007 
	C119.283127,149.365417 136.093323,149.765137 152.834930,151.055069 
	C159.001648,151.530228 165.006500,154.106003 172.199478,156.020172 
	C169.578491,159.041748 167.730423,161.271713 165.778748,163.406998 
	C143.862579,187.385162 121.863129,211.287857 100.074936,235.381653 
	C96.791138,239.013000 93.495842,241.014526 88.507736,240.464127 
	C84.904930,240.066589 81.222946,240.386612 77.203697,240.386612 
	C77.203697,209.809097 77.203697,179.586288 77.203697,148.613235 
	C85.320839,148.613235 93.410469,148.613235 102.000114,148.613007 
z"/>
<path fill="#FDFEFD" opacity="1.000000" stroke="none" 
	d="
M166.553162,202.541763 
	C174.476181,193.976242 182.164886,185.674957 190.298462,176.893372 
	C193.699081,185.297653 193.641663,193.512970 192.589523,201.618561 
	C189.346100,226.605392 176.066269,233.486404 156.740204,237.825851 
	C149.014297,239.560608 140.952957,239.801620 133.044312,240.722580 
	C132.804352,240.292725 132.564392,239.862854 132.324432,239.432983 
	C143.655899,227.223999 154.987381,215.014999 166.553162,202.541763 
z"/>
<path fill="#FCFEFD" opacity="1.000000" stroke="none" 
	d="
M185.425644,281.537964 
	C194.977921,288.903931 199.801407,298.718292 200.654221,309.999817 
	C201.359207,319.325775 200.363495,328.780365 200.121353,338.177948 
	C199.464661,338.304077 198.807983,338.430176 198.151291,338.556305 
	C181.268906,315.651733 164.386520,292.747162 147.417068,269.724487 
	C156.432816,268.150238 174.561798,273.792267 185.425644,281.537964 
z"/>
<path fill="#FBFBFB" opacity="1.000000" stroke="none" 
	d="
M304.799866,378.706360 
	C305.121796,374.978241 305.114471,371.605927 305.921112,368.441071 
	C306.882538,364.668793 309.642120,362.750549 313.735504,362.875549 
	C318.010803,363.006165 320.860046,365.145081 321.557098,369.178650 
	C322.200073,372.899048 322.270203,376.798645 322.002319,380.577454 
	C321.599365,386.261322 318.954834,388.836761 314.132202,389.071259 
	C309.272614,389.307526 306.430969,386.982117 305.117615,381.632202 
	C304.920898,380.830994 304.921600,379.981262 304.799866,378.706360 
z"/>
<path fill="#F5F5F5" opacity="1.000000" stroke="none" 
	d="
M259.401001,389.822601 
	C257.886597,387.784302 255.852432,385.778992 255.950684,383.884247 
	C256.041779,382.127472 258.096100,379.628021 259.846802,378.986816 
	C262.986908,377.836700 266.547638,377.835052 269.889191,377.359619 
	C271.635956,385.941589 268.288361,389.869293 259.401001,389.822601 
z"/>
<path fill="#F7F7F7" opacity="1.000000" stroke="none" 
	d="
M442.581604,370.783295 
	C437.173462,370.918335 432.202026,370.918335 427.235809,370.918335 
	C427.146515,364.832123 429.889893,361.679840 435.088654,361.662354 
	C440.380127,361.644501 443.035095,364.653107 442.581604,370.783295 
z"/>
</svg>